<svg width="512" height="512" viewBox="0 0 512 512" fill="none" xmlns="http://www.w3.org/2000/svg">
<g clip-path="url(#clip0)">
<path d="M394.655 202.654H95.988C78.345 202.654 63.988 217.011 63.988 234.654V255.987C63.988 332.104 106.036 401.139 173.705 436.147C178.932 438.835 185.374 436.808 188.084 431.56C190.772 426.333 188.745 419.891 183.497 417.181C122.953 385.864 85.321 324.104 85.321 255.986V234.653C85.321 228.765 90.1 223.986 95.988 223.986H394.655C400.543 223.986 405.322 228.765 405.322 234.653V255.986C405.322 324.103 367.69 385.863 307.125 417.159C301.877 419.868 299.85 426.311 302.538 431.538C304.437 435.207 308.17 437.319 312.031 437.319C313.695 437.319 315.359 436.935 316.916 436.124C384.607 401.137 426.655 332.124 426.655 255.985V234.652C426.655 217.011 412.297 202.654 394.655 202.654Z" fill="#969696"/>
<path d="M489.865 422.558C488.201 418.569 484.318 415.966 480.009 415.966H10.676C6.36699 415.966 2.48399 418.569 0.819993 422.558C-0.844007 426.547 0.0729933 431.134 3.12399 434.185L27.039 458.121C41.162 472.222 59.892 479.988 79.839 479.988H410.804C430.751 479.988 449.503 472.223 463.647 458.121L487.562 434.185C490.612 431.134 491.529 426.547 489.865 422.558ZM448.543 443.038C438.474 453.107 425.055 458.654 410.826 458.654H79.839C65.61 458.654 52.191 453.107 42.122 443.038L36.405 437.321H454.26L448.543 443.038Z" fill="#969696"/>
<path d="M491.359 253.022C462.623 234.547 416.714 254.601 411.572 256.926C406.217 259.379 403.828 265.694 406.281 271.07C408.734 276.446 415.028 278.814 420.425 276.361C430.708 271.689 463.689 260.617 479.817 271.006C487.092 275.678 490.654 284.745 490.654 298.654C490.654 341.363 404.51 367.177 371.251 373.534L363.699 375.027C357.918 376.158 354.163 381.768 355.294 387.55C356.297 392.627 360.755 396.147 365.747 396.147C366.43 396.147 367.112 396.083 367.816 395.934L375.304 394.462C380.893 393.395 511.987 367.689 511.987 298.654C511.988 277.193 505.034 261.854 491.359 253.022Z" fill="#969696"/>
<path d="M328.372 113.31C345.716 91.635 345.716 57.694 328.372 36.019C324.681 31.411 318.004 30.643 313.375 34.355C308.767 38.046 308.02 44.744 311.711 49.352C322.698 63.069 322.698 86.259 311.69 100.019C294.325 121.694 294.325 155.635 311.69 177.31C313.802 179.955 316.895 181.321 320.031 181.321C322.356 181.321 324.724 180.553 326.687 178.974C331.295 175.283 332.042 168.563 328.351 163.977C317.343 150.259 317.343 127.07 328.372 113.31Z" fill="#969696"/>
<path d="M264.287 113.31C281.652 91.635 281.652 57.694 264.287 36.019C260.618 31.411 253.898 30.664 249.29 34.355C244.682 38.046 243.935 44.766 247.626 49.352C258.634 63.069 258.634 86.259 247.605 100.019C230.261 121.694 230.261 155.635 247.605 177.31C249.717 179.955 252.81 181.321 255.946 181.321C258.271 181.321 260.618 180.553 262.602 178.974C267.21 175.283 267.957 168.585 264.266 163.977C253.279 150.259 253.279 127.07 264.287 113.31Z" fill="#969696"/>
<path d="M200.372 113.331C217.716 91.656 217.716 57.715 200.372 36.04C196.703 31.432 190.004 30.664 185.375 34.376C180.788 38.045 180.042 44.765 183.711 49.352C194.698 63.069 194.698 86.259 183.69 100.019C166.325 121.694 166.325 155.635 183.69 177.31C185.802 179.955 188.895 181.321 192.031 181.321C194.356 181.321 196.724 180.553 198.687 178.996C203.295 175.305 204.042 168.585 200.351 163.999C189.343 150.259 189.343 127.091 200.372 113.331Z" fill="#969696"/>
</g>
<defs>
<clipPath id="clip0">
<rect width="511.988" height="511.988" fill="white"/>
</clipPath>
</defs>
</svg>
